<?xml version="1.0" standalone="no"?><!DOCTYPE svg PUBLIC "-//W3C//DTD SVG 1.1//EN" "http://www.w3.org/Graphics/SVG/1.1/DTD/svg11.dtd"><svg t="1782653954154" class="icon" viewBox="0 0 1024 1024" version="1.1" xmlns="http://www.w3.org/2000/svg" p-id="39281" width="200" height="200" xmlns:xlink="http://www.w3.org/1999/xlink"><path d="M419.7 260.4c0-9.2-7.4-16.5-16.5-16.5-9.2 0-16.5 7.4-16.5 16.5 0 9.2 7.4 16.6 16.5 16.6 9.1-0.1 16.5-7.5 16.5-16.6z m62.1 0c0-9.2-7.4-16.5-16.5-16.5-9.2 0-16.5 7.4-16.5 16.5 0 9.2 7.4 16.6 16.5 16.6 9.1-0.1 16.5-7.5 16.5-16.6z m-227.3 74.2c-2.5 12.1-3.9 24.7-3.9 37.6 0 6.6 0.4 13.1 1.1 19.6 3.7-1.7 7.4-3.3 11.2-4.8-0.4-4.6-0.6-9.2-0.6-13.9 0-11.3 1.1-22.3 3.2-32.9l-11-5.6zM434.3 345c12.3 0 22.4-10 22.4-22.4v-24.3H412v24.3c-0.1 12.3 9.9 22.4 22.3 22.4z m445 112.6h64.2c4.8 0 8.7-3.9 8.7-8.7 0-4.8-3.9-8.7-8.7-8.7h-20.6c0.2-1 0.3-1.9 0.3-2.9 0-11.3-9.2-20.4-20.4-20.4h-23.3c-11.3 0-20.4 9.2-20.4 20.4-0.2 11.2 8.8 20.3 20.2 20.3z m-802.6 35H102c4.8 0 8.7-3.9 8.7-8.7 0-4.8-3.9-8.7-8.7-8.7H76.7c-4.8 0-8.7 3.9-8.7 8.7 0 4.9 3.8 8.7 8.7 8.7z m464.9-248.1c-2.1 2.8-3.4 6.2-3.4 10 0 9.2 7.4 16.5 16.5 16.5 3.5 0 6.7-1.1 9.4-2.9-6.7-8.5-14.3-16.4-22.5-23.6zM401 394c25.2 9.6 49.9 17.9 73.4 24.8 10-1.3 20.3-2 30.7-2 4.1 0 8.2 0.1 12.2 0.4-32.8-8.4-69.6-20-107.8-34.5-54-20.6-102-43.6-138-65.1 23.1-67.7 87.2-116.4 162.7-116.4 95 0 172 77 172 172 0 8.8-0.7 17.3-1.9 25.8 3.3-1.8 6.8-3.3 10.3-4.8 0.9-7.2 1.3-14.5 1.3-22 0-100.9-81.8-182.6-182.6-182.6-79.5 0-147.1 50.8-172.2 121.6-39.7-25.2-61.9-47.8-56.7-61.6 5.3-13.8 37.2-16 84.1-8.2 3.5-4.1 7.3-8.2 11.2-12.1-65.9-12.4-112.9-9.8-120.7 10.6-12.7 33.5 86.6 102.5 222 154.1z m239.2-0.5c6.6 0.1 13 0.9 19.2 2.3-7.7-9.7-19.1-20.2-33.8-31.2v0.8c0 4.8-0.3 9.5-0.6 14.2 6.1 4.8 11.1 9.5 15.2 13.9z m135.7-182c-1.6 1.6-2.6 3.7-2.6 6.2 0 4.8 3.9 8.7 8.7 8.7 2.9 0 5.5-1.4 7.1-3.7-3.8-4.3-8.3-8-13.2-11.2zM769 590.4c7.8 4.5 16.9 7.1 26.7 7.1 29.5 0 53.4-23.9 53.4-53.4s-23.9-53.4-53.4-53.4-53.4 23.9-53.4 53.4c0 13.6 5.1 26.1 13.6 35.6l-3.3 16.2 16.4-5.5z m19.9-72.5c0-3.3 2.6-5.8 5.8-5.8 3.3 0 5.8 2.6 5.8 5.8V547c0 3.3-2.6 5.8-5.8 5.8-3.3 0-5.8-2.6-5.8-5.8v-29.1z m0 47.6c0-2.6 2.2-4.8 4.8-4.8h1.9c2.6 0 4.8 2.2 4.8 4.8v1.9c0 2.6-2.2 4.8-4.8 4.8h-1.9c-2.6 0-4.8-2.2-4.8-4.8v-1.9zM958 580c0-45.1-36.5-81.6-81.6-81.6-4.7 0-9.2 0.4-13.7 1.2-6.7-13.9-17.2-25.6-30.2-33.7 2-4.9 3.1-10.4 3.1-16 0-23.6-19.1-42.8-42.8-42.8-2.9 0-5.8 0.3-8.6 0.9-8.1-15.1-12.8-33.1-12.8-52.4 0-0.5 0-1.1 0.1-1.6 49.1-2.3 85.5-10.7 85.5-20.8 0-6.4-15.1-12.2-38.9-16.1v-49.9c0-42.9-34.8-77.7-77.7-77.7s-77.7 34.8-77.7 77.7v51.2c-19.3 3.9-31.1 9-31.1 14.7 0 9.6 33.2 17.7 78.9 20.4-2.1 26.8-9.2 50.2-19.5 66.2-14.1-11.5-32.1-18.5-51.8-18.5-28.3 0-53.2 14.4-67.9 36.4-20.4-9.6-43.1-15-67.2-15-23.6 0-45.9 5.2-66 14.4-26.8-33.7-68.2-55.3-114.7-55.3-76.7 0-139.5 58.8-146.1 133.8-47.8 15.9-88.2 48.1-114.7 89.9 4 0.7 8.1 1.6 12.1 2.6 25.9-39 64.6-68.7 110.2-83 0.3-1.5 1.4-4.8 1.7-5 4.8-71.8 64.5-128.7 137.7-128.7 48.3 0 90.9 24.9 115.6 62.6-20.9 1.4-40.6 6.7-58.4 15.3 2 2.6 3.9 5.3 5.5 8.1 19.4-9 40.9-14.1 63.7-14.1 11.5 0 22.7 1.3 33.4 3.8 1.6-3 3.2-6 4.8-8.9-12.2-3-25.1-4.6-38.3-4.6h-1.1c-1.7-2.9-3.5-5.7-5.4-8.4 18.6-8.3 39.2-12.9 60.9-12.9 53.7 0 100.8 28.3 127.2 70.8 1.7-2.6 3.4-5 5.3-7.5-14.7-22.9-35.1-41.7-59.1-54.6 13.3-19.4 35.6-32 60.9-32 18 0 34.4 6.4 47.2 17.1-2.9 3.6-5.9 6.7-9.2 9.1 2.1 2 4 4.2 5.9 6.4 19.4-17.5 33-55.9 33.7-100.8-1.9 0.1-3.8 0.2-5.7 0.2h-0.1c0 1.5-0.1 3-0.2 4.4-3.5-1.1-5.6-2.2-5.6-3.4 0-3.8 17.9-6.8 39.9-6.8s39.9 3.1 39.9 6.8c0 2-5.1 3.8-13.2 5 0.1-1.7 0.3-3.3 0.4-5-2.6 0.5-5.3 0.8-8 0.9-0.5 19.4-0.5 48.1 19.6 78.9 2.8-0.4 5.6-0.7 8.6-1-1.8-2.5-3.5-5-5.2-7.7 1.8-0.3 3.6-0.4 5.5-0.4 20.4 0 36.9 16.5 36.9 36.9 0 10.1-4 19.3-10.6 26 0.5 2.3 0.8 4.7 0.9 7 3.4-2.8 6.5-6.2 8.9-10 12.9 8.2 23.1 20.3 28.8 34.8 0.5-0.1 1.1-0.2 1.5-0.3 0.2 0.4 0.4 0.6 0.6 1 5.6-1.3 11.5-2.1 17.6-2.1 41.3 0 74.8 33.5 74.8 74.8s-33.5 74.8-74.8 74.8c-1.7 0-3.3-0.1-5-0.2 3.3-8.4 5.3-17.3 5.8-26.8-3.3 1.3-6.7 2.5-10.2 3.6-2.8 23.4-15.8 43.7-34.4 56.2 0 4.1-0.3 8.2-0.6 12.2 16.1-9 29-22.9 37-39.6 2.1 0.2 4.3 0.3 6.4 0.3 13.7 0 26.8-3.4 38.1-9.4 12.4 11.2 20.2 27.4 20.2 45.4 0 16.5-6.5 31.3-17.1 42.3 1.1 2.6 2.1 5.3 3 8 13.5-12.6 21.8-30.5 21.8-50.3 0-19.5-8.1-37-21-49.6 22-14.1 36.6-39.1 36.6-67.6zM744.2 311.9c-28.3 0-54 1.9-73.8 5.2 0-0.5-0.1-1.1-0.1-1.7v-48.2c0-38.6 31.3-70 70-70 38.6 0 70 31.3 70 70v48.7c-18.6-2.5-41.5-4-66.1-4z m-2-70c-18.2 0-33 14.8-33 33v34.3c11-0.9 22.8-1.3 34.9-1.3 10.7 0 21.2 0.4 31.1 1.1v-34.1c0-18.1-14.7-33-33-33z m-9.6 40.8c-3.3 0-5.8-2.6-5.8-5.8 0-3.3 2.6-5.8 5.8-5.8 3.3 0 5.8 2.6 5.8 5.8 0 3.2-2.7 5.8-5.8 5.8z m19.3 0c-3.3 0-5.8-2.6-5.8-5.8 0-3.3 2.6-5.8 5.8-5.8 3.3 0 5.8 2.6 5.8 5.8 0.1 3.2-2.5 5.8-5.8 5.8zM342.7 412.5c0.9-2.6 1.7-5.1 2.6-7.7-6.8-1.1-13.8-1.8-20.9-1.8-6 0-11.9 0.4-17.7 1.2 1.1 2.4 1.9 4.8 2.7 7.4 4.6-0.5 9.3-0.9 14.1-0.9 6.6 0.3 13 0.9 19.2 1.8z" p-id="39282" fill="#c0c4cc"></path><path d="M208.4 794.1c0-5.5 1.6-9.9 4.9-13.2 3.3-3.3 7.3-6 12.2-8.3 4.8-2.2 9.9-4.3 15.3-6.2 5.3-1.9 10.1-4.2 14.2-7 0.7-0.3 2.8-1.8 6.2-4.4 3.4-2.6 7.4-5.4 11.9-8.5 4.5-3.1 9-6.3 13.5-9.6s7.9-6 10.4-8c1.7-1 2.8-1.8 3.4-2.3 0.5-0.5 0.8-1.6 0.8-3.4 0-2.4-0.9-4.3-2.6-5.7-1.7-1.4-3.5-2.6-5.4-3.6-1.9-1-4.9-2.8-9.1-5.2-4.1-2.4-8.5-4.8-12.9-7.2-4.5-2.4-8.6-4.7-12.4-6.7-3.8-2.1-6.4-3.4-7.8-4.1-4.1-1.7-8-2.8-11.7-3.4-3.6-0.5-6.8-1.3-9.6-2.3-2.8-1-5-2.8-6.7-5.2-1.7-2.4-2.6-6.4-2.6-11.9V660c0.7-2.4 1.9-6.9 3.6-13.5 1.7-6.6 3.6-13.5 5.7-21 2.1-7.4 4.1-14.3 6-20.7 1.9-6.4 3.2-11 3.9-13.7 1.4-3.8 3.4-7.3 6.2-10.6 2.8-3.3 6.3-4.9 10.6-4.9s7.5 1.3 9.6 3.9c2.1 2.6 3.5 5.7 4.4 9.3 0.9 3.6 1.1 7.4 0.8 11.4-0.3 4-0.7 7.3-1 10.1l50.2 7.8c4.1 0.7 6.5 2.7 7 6s0.8 6.3 0.8 9.1c0 0.7-0.1 2.8-0.3 6.5-0.2 3.6-1.5 5.4-3.9 5.4h-65.2c-0.3 1-0.9 2.1-1.6 3.1-1.4 2.1-2.1 3.5-2.1 4.1v4.2c5.9 3.1 13.2 6.5 22 10.1 8.8 3.6 17.3 8 25.4 13.2 8.1 5.2 15 11.2 20.7 18.1 5.7 6.9 8.5 14.8 8.5 23.8s-4.1 18.4-12.2 28.2-17.9 18.9-29.3 27.2c-11.4 8.3-23.1 15.2-35.2 20.7-12.1 5.5-22.1 8.3-30 8.3-6.2 0-10.5-0.4-12.9-1.3-2.5-1-3.7-4.5-3.7-10.7zM375.7 728.8c0-15.5 1.7-32.4 5.2-50.5 3.4-18.1 9.1-35 17.1-50.5 7.9-15.5 18.5-28.4 31.6-38.6 13.1-10.2 29.5-15.3 49.2-15.3 4.5 0 8.3 0.2 11.4 0.5 3.1 0.3 6.7 1.4 10.9 3.1 7.9 7.2 14.5 13.8 19.7 19.7 5.2 5.9 9.2 12 12.2 18.4 2.9 6.4 5 13.5 6.2 21.2 1.2 7.8 1.8 17 1.8 27.7 0 15.2-2.2 31.7-6.7 49.4-4.5 17.8-11.3 34.3-20.5 49.4-9.2 15.2-20.5 27.8-34.2 37.8-13.6 10-29.8 15-48.4 15-11.1 0-20.2-3-27.4-9.1-7.2-6-12.9-13.5-17.1-22.3-4.1-8.8-7-18.3-8.5-28.5-1.8-9.8-2.5-19.1-2.5-27.4z m32.1 0.6c0 4.5 0.2 9.7 0.5 15.5 0.3 5.9 1.4 11.5 3.1 16.8 1.7 5.4 4.2 9.8 7.5 13.5 3.3 3.6 8 5.4 14.2 5.4 13.1 0 24.4-4.1 33.9-12.4s17.3-18.4 23.3-30.3c6-11.9 10.5-24.6 13.5-38.1 2.9-13.5 4.4-25.4 4.4-35.7 0-7.2-0.4-14.1-1.3-20.7s-2.7-12.3-5.4-17.3c-2.8-5-6.7-9-11.7-11.9-5-2.9-11.5-4.4-19.4-4.4-12.4 0-22.7 4.5-30.8 13.5-8.1 9-14.5 19.8-19.2 32.4-4.7 12.6-7.9 25.7-9.8 39.4-1.9 13.5-2.8 24.9-2.8 34.3z" fill="#c0c4cc" p-id="39283"></path><path d="M572.6 729.9c0-15.5 1.7-32.4 5.2-50.5 3.4-18.1 9.1-35 17.1-50.5 7.9-15.5 18.5-28.4 31.6-38.6 13.1-10.2 29.5-15.3 49.2-15.3 4.5 0 8.3 0.2 11.4 0.5 3.1 0.3 6.7 1.4 10.9 3.1 7.9 7.2 14.5 13.8 19.7 19.7 5.2 5.9 9.2 12 12.2 18.4 2.9 6.4 5 13.5 6.2 21.2 1.2 7.8 1.8 17 1.8 27.7 0 15.2-2.2 31.7-6.7 49.4-4.5 17.8-11.3 34.3-20.5 49.4-9.2 15.2-20.5 27.8-34.2 37.8-13.6 10-29.8 15-48.4 15-11.1 0-20.2-3-27.4-9.1-7.2-6-12.9-13.5-17.1-22.3-4.1-8.8-7-18.3-8.5-28.5-1.7-9.8-2.5-19.1-2.5-27.4z m32.1 0.6c0 4.5 0.2 9.7 0.5 15.5 0.3 5.9 1.4 11.5 3.1 16.8 1.7 5.4 4.2 9.8 7.5 13.5 3.3 3.6 8 5.4 14.2 5.4 13.1 0 24.4-4.1 33.9-12.4s17.3-18.4 23.3-30.3c6-11.9 10.5-24.6 13.5-38.1 2.9-13.5 4.4-25.4 4.4-35.7 0-7.2-0.4-14.1-1.3-20.7s-2.7-12.3-5.4-17.3c-2.8-5-6.7-9-11.7-11.9-5-2.9-11.5-4.4-19.4-4.4-12.4 0-22.7 4.5-30.8 13.5-8.1 9-14.5 19.8-19.2 32.4-4.7 12.6-7.9 25.7-9.8 39.4-1.8 13.5-2.8 24.9-2.8 34.3z" fill="#c0c4cc" p-id="39284"></path></svg>